<svg id="instagram" xmlns="http://www.w3.org/2000/svg" viewBox="0 0 27.023 27.023">
  <defs>
    <style>
      .cls-1 {
        fill: #363035;
      }

      .cls-2 {
        fill: #fff;
      }
    </style>
  </defs>
  <path id="Path_27" data-name="Path 27" class="cls-1" d="M30.023,27.512A13.512,13.512,0,1,1,16.512,14,13.511,13.511,0,0,1,30.023,27.512Zm0,0" transform="translate(-3 -14)"/>
  <g id="Group_16" data-name="Group 16" transform="translate(7.437 7.437)">
    <path id="Path_20" data-name="Path 20" class="cls-2" d="M51.061,51H41.229A1.213,1.213,0,0,0,40,52.229v9.832a1.213,1.213,0,0,0,1.229,1.229h9.832a1.213,1.213,0,0,0,1.229-1.229V52.229A1.213,1.213,0,0,0,51.061,51Zm-4.916,3.687a2.458,2.458,0,1,1-2.458,2.458,2.427,2.427,0,0,1,2.458-2.458Zm-4.609,7.374a.33.33,0,0,1-.307-.307V56.531h1.306a1.692,1.692,0,0,0-.077.615,3.687,3.687,0,1,0,7.374,0,1.692,1.692,0,0,0-.077-.615h1.306v5.223a.33.33,0,0,1-.307.307Zm9.525-8.3a.33.33,0,0,1-.307.307H49.525a.33.33,0,0,1-.307-.307V52.536a.33.33,0,0,1,.307-.307h1.229a.33.33,0,0,1,.307.307Zm0,0" transform="translate(-40 -51)"/>
  </g>
</svg>
