<svg xmlns="http://www.w3.org/2000/svg" viewBox="0 0 109.266 64.85">
  <defs>
    <style>
      .cls-1 {
        fill: #2598f3;
      }

      .cls-2 {
        fill: #2397f3;
      }

      .cls-3 {
        fill: #2698f3;
      }

      .cls-4 {
        fill: #020202;
      }

      .cls-5 {
        fill: #030303;
      }

      .cls-6 {
        fill: #070707;
      }

      .cls-7 {
        fill: #2b9bf4;
      }
    </style>
  </defs>
  <g id="logo" transform="translate(2448 -107)">
    <path id="Subtraction_3" data-name="Subtraction 3" class="cls-1" d="M1.5,23.739H0q.028-4.849.056-9.716v-.075q.028-4.9.056-9.792v-1.5c0-.06,0-.121,0-.182C.1,1.973.088,1.453.824,1.386h.07a.673.673,0,0,1,.506.16.966.966,0,0,1,.138.709,3.038,3.038,0,0,0,0,.33c.016.08.025.159.036.258.015.131.033.293.076.529C3.9,1.073,6.026.034,8.537,0h.1a9.531,9.531,0,0,1,5.48,1.618,9.305,9.305,0,0,1,3.4,4.6,5.7,5.7,0,0,1,.412,2.246,10.848,10.848,0,0,1-.187,2.47,8.534,8.534,0,0,1-1.723,3.632,9.078,9.078,0,0,1-7.04,3.494A9.286,9.286,0,0,1,2.7,15.5c-.131-.112-.267-.222-.457-.373s-.421-.337-.741-.6v9.211ZM8.952,1.534A7.41,7.41,0,0,0,1.5,8.612a7.238,7.238,0,0,0,1.97,5.43,6.978,6.978,0,0,0,4.956,2.334c.125,0,.252,0,.376-.014h.074a7.3,7.3,0,0,0,7.488-7.339A7.346,7.346,0,0,0,9.1,1.535Z" transform="translate(-2356.678 148.111)"/>
    <path id="Subtraction_4" data-name="Subtraction 4" class="cls-2" d="M44.519,29.2h0C38.574,27.076,32.549,26.9,27.369,26.9c-.867,0-1.744.006-2.592.011s-1.718.011-2.574.011c-.716-.007-1.446-.018-2.153-.029h-.009c-1.287-.019-2.618-.039-3.934-.039-5.091,0-10.566.271-16.108,2.239,1.36-1.768,3.135-2.157,4.851-2.533a17.3,17.3,0,0,0,1.926-.5A9.187,9.187,0,0,1,4.5,21a26.127,26.127,0,0,1,.05-5.492l.021-.274A66.934,66.934,0,0,1,5.606,8.314c.277-1.494.563-3.039.8-4.645,1.112.953,2.2,1.891,3.248,2.8,1.715,1.48,3.333,2.876,4.988,4.279.733.622.392,1.171-.079,1.932l-.033.053A72.32,72.32,0,0,0,7.413,6.477q-.1.556-.209,1.109l0,.014c-.917,4.849-1.783,9.429-.949,14.154a4.506,4.506,0,0,0,4.781,3.767,7.586,7.586,0,0,0,1.4-.135c.351-.07.709-.18,1.055-.285a6.59,6.59,0,0,1,1.9-.382,3,3,0,0,1,1.529.412,6.427,6.427,0,0,1-3.336-5.049,15.106,15.106,0,0,1,1.168-5.854,61.892,61.892,0,0,1,5.32-10.479C20.788,2.533,21.529,1.275,22.241,0c.653,1.147,1.333,2.292,1.99,3.4,2.512,4.229,4.884,8.224,6.21,12.852a9.573,9.573,0,0,1,.295,4.958,6.47,6.47,0,0,1-3.188,3.939,3.123,3.123,0,0,1,1.528-.391,6.965,6.965,0,0,1,1.936.374,9.588,9.588,0,0,0,1.375.331,7.91,7.91,0,0,0,1.183.094c2.756,0,4.49-1.7,4.883-4.775.549-4.359-.245-8.57-1.085-13.027q-.113-.6-.225-1.2A65.969,65.969,0,0,0,31,11.72a1.855,1.855,0,0,0-.215.294c-.158.245-.336.522-.594.522a.648.648,0,0,1-.427-.217.934.934,0,0,1-.342-.716,1.52,1.52,0,0,1,.642-1.005c2.8-2.361,5.56-4.725,8.124-6.927a58.823,58.823,0,0,0,.953,6.3,42.4,42.4,0,0,1,1,8.134,15.6,15.6,0,0,1-2.215,8.1,13.4,13.4,0,0,0,1.825.481c1.679.361,3.415.735,4.762,2.512ZM22.29,3.413c-.178,0-.353.157-.536.481s-.376.649-.564.974c-2.426,4.182-4.932,8.5-5.8,13.479a4.468,4.468,0,0,0,2.172,4.792,7.953,7.953,0,0,0,4.4,1.276l.2,0a8.677,8.677,0,0,0,1.348-.075,6.362,6.362,0,0,0,4.825-2.379,6.243,6.243,0,0,0,.529-5.259c-1.235-4.566-3.631-8.675-5.948-12.648l0-.008C22.758,3.75,22.546,3.413,22.29,3.413Z" transform="translate(-2415.612 107)"/>
    <path id="Path_3" data-name="Path 3" class="cls-3" d="M202.418,96.714V104.2a8.553,8.553,0,0,1-8.275,8.836,8.425,8.425,0,0,1-8.874-8.425c-.15-5.616-.037-11.233-.037-16.849,0-.524-.15-1.236.674-1.273,1.048-.075.786.786.786,1.31.037,5.429-.037,10.858.037,16.287.037,4.418,3.033,7.488,7.189,7.451a6.9,6.9,0,0,0,6.964-6.852c.075-5.317.037-10.6.037-15.913v-1.31c0-.562.075-1.011.786-.974.749.037.711.562.711,1.048Z" transform="translate(-2563.889 52.858)"/>
    <path id="Subtraction_1" data-name="Subtraction 1" class="cls-4" d="M8.936,18.158a8.641,8.641,0,0,1-5.357-1.877,9.137,9.137,0,0,1-3.492-5.99A9.068,9.068,0,0,1,9.031,0a8.892,8.892,0,0,1,5.255,1.716c.582.422.976.79,1,1.218.023.36-.213.758-.741,1.253-1.791,1.688-3.554,3.473-5.258,5.2C7.894,10.8,6.451,12.261,5,13.66c-.444.427-.628.738-.6,1.01.035.309.355.559.859.862a7.343,7.343,0,0,0,3.7.994,7.718,7.718,0,0,0,4.988-1.854c.533-.431.776-.628,1.11-.628a3.942,3.942,0,0,1,1.211.365A9.379,9.379,0,0,1,8.936,18.158ZM9.17,1.565A7.589,7.589,0,0,0,3.428,4.188c-2.287,2.63-2.41,6.028-.337,9.323.961-.961,1.92-1.93,2.848-2.868,2.22-2.244,4.317-4.363,6.513-6.455.533-.516.747-.879.693-1.177-.061-.34-.471-.584-1.068-.845A7.234,7.234,0,0,0,9.17,1.565Z" transform="translate(-2430.985 148.005)"/>
    <path id="Subtraction_2" data-name="Subtraction 2" class="cls-5" d="M8.943,18.16H8.875a8.845,8.845,0,0,1-6.3-2.675A9.027,9.027,0,0,1,0,8.987,9.045,9.045,0,0,1,2.652,2.615,8.869,8.869,0,0,1,8.963,0H9.1a8.817,8.817,0,0,1,6.295,2.734,9.212,9.212,0,0,1,2.616,6.44,8.973,8.973,0,0,1-2.705,6.337A9.007,9.007,0,0,1,8.943,18.16Zm0-16.512h-.07A7.314,7.314,0,0,0,3.631,3.794,7.473,7.473,0,0,0,1.5,9.175a7.345,7.345,0,0,0,7.413,7.339h.068a7.464,7.464,0,0,0,7.459-7.451,7.322,7.322,0,0,0-2.2-5.243A7.486,7.486,0,0,0,8.945,1.648Z" transform="translate(-2400.562 147.998)"/>
    <path id="Path_6" data-name="Path 6" class="cls-4" d="M6.5,100.594c-2.509-3.857-2.509-3.857.3-7.6,1.647-2.209,3.295-4.418,4.98-6.7a2,2,0,0,0-2.584.9C6.952,90.3,4.631,93.33,2.347,96.4c-.037.075-.3.487-.374.487-.112,0-.225-.3-.262-.412A5.858,5.858,0,0,1,1.6,94.491V92.169c0-1.573,0-3.145.037-4.718a1.6,1.6,0,0,0-.412-1.31A1.632,1.632,0,0,0,.1,86.029v26.547a1.122,1.122,0,0,0,1.348-.637,3.377,3.377,0,0,0,.225-1.61c-.037-1.91-.075-3.857-.075-5.766,0-1.011,0-2.059-.075-3.07a3.114,3.114,0,0,1,.337-2.247c.262-.3.749-1.011,1.236-.936.524.075.936,1.048,1.2,1.423,2.471,3.894,4.98,7.751,7.414,11.645a1.635,1.635,0,0,0,2.359.786C11.482,108.307,9.011,104.45,6.5,100.594Z" transform="translate(-2448.1 53.172)"/>
    <path id="Path_7" data-name="Path 7" class="cls-6" d="M100.546,110.876c0-1.8-.075-3.632.037-5.429.112-1.46-.3-2.059-1.835-1.872-.487.075-1.385.412-1.46-.562-.075-.786.487-.936,1.161-.9.786.037,1.76.262,2.059-.711a4.218,4.218,0,0,0,.075-1.2,27.552,27.552,0,0,1,0-4.306.755.755,0,0,1,.112-.412c.112-.187.374-.187.6-.187a.825.825,0,0,1,.6.187.938.938,0,0,1,.187.711c0,1.61-.037,3.22-.037,4.83a1.252,1.252,0,0,0,.262.973.943.943,0,0,0,.824.225c.449-.037.861-.037,1.273-.037.524,0,.973.037,1.011.786,0,.786-.524.786-1.011.711-2.247-.412-2.471.749-2.4,2.621.15,3.557.037,7.114.037,10.671,0,.6.337,1.535-.824,1.423-1.048-.075-.6-.936-.637-1.46C100.509,114.882,100.546,112.86,100.546,110.876Z" transform="translate(-2508.895 47.345)"/>
    <path id="Path_12" data-name="Path 12" class="cls-7" d="M132.489,37.5c2.733,2.883,3.557,5.654,2.359,7.975-.225.487-.337,1.348-1.273.974-1.011-.412-.524-1.011-.225-1.647.824-1.76.225-3.295-.786-4.718C132.04,39.26,131.515,38.511,132.489,37.5Z" transform="translate(-2530.578 83.503)"/>
    <path id="Path_13" data-name="Path 13" class="cls-7" d="M153.705,37.3a1.746,1.746,0,0,1,0,2.546c-1.123,1.61-1.722,3.332-.6,5.2.337.562.187.9-.374,1.2-.637.374-.9-.037-1.161-.487a5.363,5.363,0,0,1-.037-5.354A15.517,15.517,0,0,1,153.705,37.3Z" transform="translate(-2542.397 83.629)"/>
  </g>
</svg>
