<svg id="youtube" xmlns="http://www.w3.org/2000/svg" viewBox="0 0 27.023 27.023">
  <defs>
    <style>
      .cls-1 {
        fill: #363035;
      }

      .cls-2 {
        fill: #fff;
      }
    </style>
  </defs>
  <path id="Path_27" data-name="Path 27" class="cls-1" d="M30.023,27.512A13.512,13.512,0,1,1,16.512,14,13.511,13.511,0,0,1,30.023,27.512Zm0,0" transform="translate(-3 -14)"/>
  <g id="Group_17" data-name="Group 17" transform="translate(7.531 5.289)">
    <path id="Path_21" data-name="Path 21" class="cls-2" d="M11.52,50.823a1.519,1.519,0,0,0-.449-.789,1.483,1.483,0,0,0-.813-.376A43.4,43.4,0,0,0,5.863,49.5a42.961,42.961,0,0,0-4.382.158,1.37,1.37,0,0,0-.813.376,1.491,1.491,0,0,0-.461.789A13.893,13.893,0,0,0,0,53.591a13.725,13.725,0,0,0,.206,2.768,1.519,1.519,0,0,0,.449.789,1.466,1.466,0,0,0,.813.364,42.613,42.613,0,0,0,4.394.17,42.613,42.613,0,0,0,4.394-.17,1.431,1.431,0,0,0,.8-.364,1.491,1.491,0,0,0,.461-.789,13.893,13.893,0,0,0,.206-2.768,13.558,13.558,0,0,0-.206-2.768Zm-8.17.789H2.5v4.5H1.712v-4.5H.874v-.741H3.338v.741Zm2.137,4.5h-.7v-.425a1.142,1.142,0,0,1-.8.486.427.427,0,0,1-.461-.291A2.167,2.167,0,0,1,3.46,55.3v-3.1h.7v2.877a1.133,1.133,0,0,0,.012.279.166.166,0,0,0,.17.17c.146,0,.291-.109.449-.328v-3h.7v3.909ZM8.17,54.951a2.827,2.827,0,0,1-.073.789.545.545,0,0,1-.558.437A.994.994,0,0,1,6.8,55.74v.376h-.7V50.872h.7V52.6a.975.975,0,0,1,.741-.425.545.545,0,0,1,.558.437,2.768,2.768,0,0,1,.073.789Zm2.683-.656H9.432v.692q0,.546.364.546a.305.305,0,0,0,.316-.279,3.966,3.966,0,0,0,.012-.486h.716v.1a3.593,3.593,0,0,1-.012.461.9.9,0,0,1-.17.425.97.97,0,0,1-.85.425,1.01,1.01,0,0,1-.85-.4,1.452,1.452,0,0,1-.231-.923V53.482a1.566,1.566,0,0,1,.219-.923,1.089,1.089,0,0,1,1.687,0,1.541,1.541,0,0,1,.219.923Zm0,0" transform="translate(0 -43.491)"/>
    <path id="Path_22" data-name="Path 22" class="cls-2" d="M56.452,76.7a.509.509,0,0,0-.352.17v2.379a.482.482,0,0,0,.352.17c.206,0,.3-.182.3-.534V77.234c0-.352-.1-.534-.3-.534Zm0,0" transform="translate(-49.29 -67.389)"/>
    <path id="Path_23" data-name="Path 23" class="cls-2" d="M78.052,76.7c-.243,0-.352.182-.352.534V77.6h.716v-.364c0-.352-.121-.534-.364-.534Zm0,0" transform="translate(-68.268 -67.389)"/>
    <path id="Path_24" data-name="Path 24" class="cls-2" d="M16.6,3.156V5.3h.789V3.156L18.344,0h-.8l-.534,2.076L16.438,0H15.6c.146.449.316.935.51,1.481A12.317,12.317,0,0,1,16.6,3.156Zm0,0" transform="translate(-13.706)"/>
    <path id="Path_25" data-name="Path 25" class="cls-2" d="M39.344,14.842a.973.973,0,0,0,.838-.4,1.583,1.583,0,0,0,.219-.935V12.123a1.541,1.541,0,0,0-.219-.923,1.063,1.063,0,0,0-1.663,0,1.566,1.566,0,0,0-.219.923v1.384a1.609,1.609,0,0,0,.219.935.965.965,0,0,0,.825.4ZM39,11.978c0-.364.109-.546.34-.546s.34.182.34.546v1.663c0,.364-.109.558-.34.558s-.34-.182-.34-.558Zm0,0" transform="translate(-33.651 -9.489)"/>
    <path id="Path_26" data-name="Path 26" class="cls-2" d="M61.034,15.106a1.119,1.119,0,0,0,.813-.486v.437h.716V11.1h-.716v3.023c-.158.231-.3.34-.449.34-.1,0-.146-.061-.17-.17,0-.012-.012-.1-.012-.279V11.1H60.5v3.12a2.341,2.341,0,0,0,.061.595.451.451,0,0,0,.473.291Zm0,0" transform="translate(-53.156 -9.753)"/>
  </g>
</svg>
